# AST/ASF file generated using VICON BodyLanguage
# -----------------------------------------------
:version 1.10
:name VICON
:units
  mass 1.0
  length 0.45
  angle deg
:documentation
   .ast/.asf automatically generated from VICON data using
   VICON BodyBuilder and BodyLanguage model FoxedUp or BRILLIANT.MOD
:root
   order TX TY TZ RX RY RZ
   axis XYZ
   position 0 0 0  
   orientation 0 0 0 
:bonedata
  begin
     id 1 
     name lhipjoint
     direction 0.692814 -0.645514 0.321437 
     length 2.38754 
     axis 0 0 0  XYZ
  end
  begin
     id 2 
     name lfemur
     direction 0.34202 -0.939693 0  
     length 6.41921  
     axis 0 0 20  XYZ
    dof rx ry rz
    limits (-160.0 20.0)
           (-70.0 70.0)
           (-60.0 70.0)
  end
  begin
     id 3 
     name ltibia
     direction 0.34202 -0.939693 0   
     length 6.98247   
     axis 0 0 20   XYZ
    dof rx
    limits (-10.0 170.0)
  end
  begin
     id 4 
     name lfoot
     direction 0.0947186 -0.260237 0.960888   
     length 1.83034   
     axis -90 7.62852e-016 20   XYZ
    dof rx rz
    limits (-45.0 90.0)
           (-70.0 20.0)
  end
  begin
     id 5 
     name ltoes
     direction 1.53538e-011 -4.21952e-011 1   
     length 0.920499   
     axis -90 7.62852e-016 20   XYZ
    dof rx
    limits (-90.0 20.0)
  end
  begin
     id 6 
     name rhipjoint
     direction -0.631686 -0.693949 0.345555   
     length 2.2209  
     axis 0 0 0  XYZ 
  end
  begin
     id 7 
     name rfemur
     direction -0.34202 -0.939693 0   
     length 6.49542   
     axis 0 0 -20   XYZ
    dof rx ry rz
    limits (-160.0 20.0)
           (-70.0 70.0)
           (-70.0 60.0)
  end
  begin
     id 8 
     name rtibia
     direction -0.34202 -0.939693 0   
     length 7.21712   
     axis 0 0 -20   XYZ
    dof rx
    limits (-10.0 170.0)
 end
 begin
     id 9 
     name rfoot
     direction -0.0825378 -0.226771 0.970444   
     length 1.89724  
     axis -90 -7.62852e-016 -20   XYZ
    dof rx rz
    limits (-45.0 90.0)
           (-20.0 70.0)
  end
  begin
     id 10 
     name rtoes
     direction -1.53515e-011 -4.22016e-011 1   
     length 0.955868   
     axis -90 -7.62852e-016 -20   XYZ
    dof rx
    limits (-90.0 20.0)
  end
  begin
     id 11 
     name lowerback
     direction -0.0104711 0.984802 -0.173368   
     length 1.84931   
     axis 0 0 0   XYZ
    dof rx ry rz
    limits (-20.0 45.0)
           (-30.0 30.0)
           (-30.0 30.0)
  end
  begin
     id 12 
     name upperback
     direction -0.00286433 0.999996 -0.000382853   
     length 1.85768   
     axis 0 0 0   XYZ
    dof rx ry rz
    limits (-20.0 45.0)
           (-30.0 30.0)
           (-30.0 30.0)
  end
  begin
     id 13 
     name thorax
     direction 0.00167534 0.996793 0.0800069   
     length 1.92   
     axis 0 0 0   XYZ
    dof rx ry rz
    limits (-20.0 45.0)
           (-30.0 30.0)
           (-30.0 30.0)
  end
  begin
     id 14 
     name lowerneck
     direction -0.0672491 0.995415 0.068018   
     length 1.58923   
     axis 0 0 0   XYZ
    dof rx ry rz
    limits (-20.0 45.0)
           (-30.0 30.0)
           (-30.0 30.0)
  end
  begin
     id 15 
     name upperneck
     direction 0.0958019 0.982476 -0.159884   
     length 1.60189   
     axis 0 0 0   XYZ
    dof rx ry rz
    limits (-20.0 45.0)
           (-30.0 30.0)
           (-30.0 30.0)
  end
  begin
     id 16
     name head
     direction 0.032989 0.997338 -0.0650226  
     length 1.61681  
     axis 0 0 0   XYZ
    dof rx ry rz
    limits (-20.0 45.0)
           (-30.0 30.0)
           (-30.0 30.0)
  end
  begin
     id 17 
     name lclavicle
     direction 0.954279 0.298875 -0.00496069  
     length 2.99449  
     axis 0 0 0   XYZ
    dof ry rz
    limits (-20.0 10.0)
           (0.0 20.0)
  end
  begin
     id 18 
     name lhumerus
     direction 1 -4.48985e-011 -4.2057e-027   
     length 4.79185   
     axis 180 -30 -90   XYZ
    dof rx ry rz
    limits (-60.0 90.0)
           (-90.0 90.0)
           (-90.0 90.0)
  end
  begin
     id 19
     name lradius
     direction 1 -4.48945e-011 1.15441e-028   
     length 2.65553   
     axis 180 -30 -90   XYZ
    dof rx
    limits (-10.0 170.0)
  end
  begin
     id 20
     name lwrist
     direction 1 -4.4899e-011 4.8894e-028   
     length 1.32777   
     axis -2.56392e-016 90 90   XYZ
    dof ry
    limits (-180.0 0.0)
 end
  begin
     id 21 
     name lhand
     direction 1 -4.48908e-011 9.7788e-028   
     length 0.743904   
     axis -6.23971e-016 90 90   XYZ
    dof rx rz
    limits (-90.0 90.0)
           (-45.0 45.0)
  end
  begin
     id 22 
     name lfingers
     direction 1 -4.49068e-011 1.95576e-027   
     length 0.599754   
     axis -1.24794e-015 90 90   XYZ
    dof rx
    limits (0.0 90.0)
  end
  begin
     id 23
     name lthumb
     direction 0.707107 -6.34883e-011 0.707107   
     length 0.861131   
     axis -90 45 2.85299e-015   XYZ
    dof rx rz
    limits (-45.0 45.0)
           (-45.0 45.0)
  end
  begin
     id 24 
     name rclavicle
     direction -0.957921 0.286916 0.00811568   
     length 3.06817  
     axis 0 0 0   XYZ 
    dof ry rz
    limits (-10.0 20.0)
           (-20.0 0.0)
  end
  begin
     id 25 
     name rhumerus
     direction -1 -4.48971e-011 -3.07942e-027  
     length 4.77254   
     axis 180 30 90   XYZ
    dof rx ry rz
    limits (-90.0 60.0)
           (-90.0 90.0)
           (-90.0 90.0)
  end
  begin
     id 26 
     name rradius
     direction -1 -4.48957e-011 -9.6815e-028   
     length 2.75995   
     axis 180 30 90   XYZ
    dof rx
    limits (-10.0 170.0)
  end
  begin
     id 27 
     name rwrist
     direction -1 -4.48979e-011 4.8894e-028   
     length 1.37997   
     axis -2.56392e-016 -90 -90   XYZ
    dof ry
    limits (-180.0 0.0)
  end
  begin
     id 28
     name rhand
     direction -1 -4.48906e-011 9.7788e-028   
     length 0.701619   
     axis -6.23971e-016 -90 -90   XYZ
    dof rx rz
    limits (-90.0 90.0)
           (-45.0 45.0)
  end
  begin
     id 29
     name rfingers
     direction -1 -4.49018e-011 1.95576e-027   
     length 0.565663   
     axis -1.24794e-015 -90 -90   XYZ
    dof rx
    limits (0.0 90.0)
  end
  begin
     id 30
     name rthumb
     direction -0.707107 -6.34881e-011 0.707107   
     length 0.812183   
     axis -90 -45 -2.85299e-015   XYZ
    dof rx rz
    limits (-45.0 45.0)
           (-45.0 45.0)
  end
:hierarchy
  begin
    root lhipjoint rhipjoint lowerback
    lhipjoint lfemur
    lfemur ltibia
    ltibia lfoot
    lfoot ltoes
    rhipjoint rfemur
    rfemur rtibia
    rtibia rfoot
    rfoot rtoes
    lowerback upperback
    upperback thorax
    thorax lowerneck lclavicle rclavicle
    lowerneck upperneck
    upperneck head
    lclavicle lhumerus
    lhumerus lradius
    lradius lwrist
    lwrist lhand lthumb
    lhand lfingers
    rclavicle rhumerus
    rhumerus rradius
    rradius rwrist
    rwrist rhand rthumb
    rhand rfingers
  end

#!OML:ASF F:\VICON\USERDATA\INSTALL\rory3\rory3.ASF
:FULLY-SPECIFIED
:DEGREES
667
root 0.128868 14.9515 -2.28506 -4.57704 0.0251472 2.40132
lowerback 30.5855 0.646714 -3.56268
upperback 12.4448 -0.171593 -0.318062
thorax -2.67961 -0.192414 1.75029
lowerneck -14.8238 -8.71464 -12.145
upperneck -11.8175 -9.13047 23.2898
head 0.891202 -4.18491 8.74826
rclavicle -2.88238e-015 5.86415e-015
rhumerus 19.4466 25.6642 -79.0574
rradius 70.6791
rwrist 23.3749
rhand 23.0163 6.22335
rfingers 7.12502
rthumb 47.3339 -16.2943
lclavicle -2.88238e-015 5.86415e-015
lhumerus 13.5565 -21.6934 79.8425
lradius 77.052
lwrist -1.25095
lhand 5.38611 27.132
lfingers 7.12502
lthumb 30.7382 54.583
rfemur -25.5904 -2.56661 13.6217
rtibia 52.9769
rfoot -19.4069 -4.79569
rtoes -18.2777
lfemur -22.9298 3.52346 -18.8109
ltibia 47.426
lfoot -15.4336 -2.34691
ltoes -15.5434
668
root 0.132253 14.9444 -2.31267 -4.36618 0.0662301 2.4339
lowerback 30.8057 0.620952 -3.53044
upperback 12.5151 -0.202254 -0.325496
thorax -2.69614 -0.206257 1.73386
lowerneck -14.0524 -8.7028 -12.2184
upperneck -11.3353 -9.24802 23.3718
head 0.94147 -4.2694 8.78158
rclavicle 3.3048e-015 2.18663e-015
rhumerus 19.5113 25.6621 -79.1383
rradius 70.072
rwrist 23.6746
rhand 23.0505 6.80719
rfingers 7.12502
rthumb 47.3655 -15.6963
lclavicle 3.3048e-015 2.18663e-015
lhumerus 13.3036 -21.9 79.9694
lradius 76.8242
lwrist -1.16598
lhand 5.39034 27.195
lfingers 7.12502
lthumb 30.7422 54.6453
rfemur -26.0241 -2.65309 13.5681
rtibia 53.119
rfoot -19.3242 -4.63134
rtoes -17.7704
lfemur -23.3849 3.4934 -18.8887
ltibia 47.5579
lfoot -15.3426 -2.3378
ltoes -15.8441
669
root 0.133561 14.9376 -2.33789 -4.09398 0.119176 2.55096
lowerback 30.9068 0.611027 -3.59373
upperback 12.5969 -0.23423 -0.344339
thorax -2.64472 -0.224738 1.75953
lowerneck -13.4974 -8.72116 -12.3536
upperneck -10.6635 -9.41109 23.3768
head 1.08278 -4.35323 8.78567
rclavicle 2.08724e-015 4.44781e-015
rhumerus 19.3454 25.6646 -79.3842
rradius 69.7421
rwrist 24.1367
rhand 23.2128 7.05536
rfingers 7.12502
rthumb 47.5154 -15.3804
lclavicle 2.08724e-015 4.44781e-015
lhumerus 13.0963 -22.0862 80.1135
lradius 76.5336
lwrist -1.09909
lhand 5.33497 27.1835
lfingers 7.12502
lthumb 30.6894 54.6437
rfemur -26.5306 -2.73447 13.4345
rtibia 53.2494
rfoot -19.16 -4.62363
rtoes -17.8283
lfemur -23.8962 3.48725 -19.0579
ltibia 47.689
lfoot -15.2056 -2.40706
ltoes -15.7966
670
root 0.135084 14.934 -2.35984 -3.92937 0.121842 2.56882
lowerback 31.1302 0.608812 -3.58524
upperback 12.7105 -0.239663 -0.322978
thorax -2.613 -0.229546 1.78059
lowerneck -13.2174 -8.79119 -12.5493
upperneck -9.80706 -9.6433 23.3429
head 1.33153 -4.44577 8.76874
rclavicle 4.69629e-015 -7.20594e-016
rhumerus 19.0348 25.857 -79.5374
rradius 69.6784
rwrist 24.1593
rhand 23.0262 6.8392
rfingers 7.12502
rthumb 47.3431 -15.6744
lclavicle 4.69629e-015 -7.20594e-016
lhumerus 13.0101 -22.1976 80.3111
lradius 76.1662
lwrist -1.16222
lhand 5.55272 27.1981
lfingers 7.12502
lthumb 30.897 54.6192
rfemur -26.873 -2.7442 13.4082
rtibia 53.3249
rfoot -18.9726 -4.62643
rtoes -17.8806
lfemur -24.254 3.50719 -19.1017
ltibia 47.8266
lfoot -15.1063 -2.47589
ltoes -15.4663
671
root 0.138437 14.9296 -2.38237 -3.82132 0.153702 2.42238
lowerback 31.3856 0.559791 -3.38468
upperback 12.9179 -0.247102 -0.26332
thorax -2.49021 -0.232528 1.73407
lowerneck -13.0435 -8.86266 -12.6539
upperneck -9.06359 -9.86231 23.2609
head 1.55328 -4.53381 8.7223
rclavicle -1.2424e-015 -2.28602e-015
rhumerus 18.8618 25.9816 -79.6424
rradius 69.5888
rwrist 24.2043
rhand 22.7051 6.74138
rfingers 7.12502
rthumb 47.0463 -15.9044
lclavicle -1.2424e-015 -2.28602e-015
lhumerus 13.1291 -22.2972 80.4682
lradius 75.8049
lwrist -1.30853
lhand 5.85382 27.3873
lfingers 7.12502
lthumb 31.184 54.7535
rfemur -27.0879 -2.76618 13.5543
rtibia 53.3648
rfoot -18.8766 -4.58592
rtoes -17.6217
lfemur -24.5657 3.52749 -18.9744
ltibia 47.9798
lfoot -14.9738 -2.53685
ltoes -15.2064
672
root 0.139256 14.9252 -2.40465 -3.75095 0.211276 2.22847
lowerback 31.6431 0.508952 -3.18543
upperback 13.1618 -0.25344 -0.167019
thorax -2.32504 -0.237023 1.7285
lowerneck -12.9268 -8.9108 -12.646
upperneck -8.31657 -10.0567 23.0304
head 1.76153 -4.61015 8.60934
rclavicle 1.83876e-015 2.9445e-015
rhumerus 18.7779 26.0555 -79.7686
rradius 69.4099
rwrist 24.326
rhand 22.6434 6.90352
rfingers 7.12502
rthumb 46.9891 -15.7675
lclavicle 1.83876e-015 2.9445e-015
lhumerus 13.0074 -22.4728 80.6162
lradius 75.6045
lwrist -1.34608
lhand 5.53053 27.3197
lfingers 7.12502
lthumb 30.8759 54.7448
rfemur -27.2555 -2.80034 13.7654
rtibia 53.3903
rfoot -18.8207 -4.57348
rtoes -17.4234
lfemur -24.8558 3.54605 -18.7829
ltibia 48.1449
lfoot -14.8809 -2.62044
ltoes -15.2927
673
root 0.138887 14.9205 -2.42544 -3.60178 0.203992 2.18786
lowerback 31.8173 0.539026 -3.15448
upperback 13.3623 -0.205424 -0.101166
thorax -2.17253 -0.219223 1.76831
lowerneck -12.8678 -8.98932 -12.6252
upperneck -7.4875 -10.298 22.7228
head 2.00311 -4.70425 8.46116
rclavicle -1.82866e-015 -5.25304e-016
rhumerus 18.6511 26.1115 -79.8239
rradius 69.3009
rwrist 24.2527
rhand 22.6829 7.01879
rfingers 7.12502
rthumb 47.0257 -15.6361
lclavicle -1.82866e-015 -5.25304e-016
lhumerus 12.8574 -22.8354 80.7087
lradius 75.2973
lwrist -1.05295
lhand 4.63385 26.7892
lfingers 7.12502
lthumb 30.0207 54.3728
rfemur -27.5556 -2.7764 13.8217
rtibia 53.4323
rfoot -18.6705 -4.56999
rtoes -17.2981
lfemur -25.2257 3.59811 -18.7461
ltibia 48.3312
lfoot -14.8562 -2.67336
ltoes -15.2136
674
root 0.138599 14.9142 -2.44764 -3.43489 0.169548 2.11819
lowerback 32.0151 0.585497 -3.10619
upperback 13.5733 -0.132717 -0.0255946
thorax -2.01879 -0.189262 1.80113
lowerneck -12.9804 -9.0962 -12.5052
upperneck -6.70593 -10.5636 22.3317
head 2.24983 -4.80638 8.26281
rclavicle 2.91965e-015 -2.95692e-015
rhumerus 18.5146 26.1667 -79.8582
rradius 69.3049
rwrist 24.1911
rhand 22.6483 6.92015
rfingers 7.12502
rthumb 46.9937 -15.7488
lclavicle 2.91965e-015 -2.95692e-015
lhumerus 12.8255 -23.1492 80.7675
lradius 75.0596
lwrist -0.977152
lhand 4.13235 26.4187
lfingers 7.12502
lthumb 29.5421 54.0879
rfemur -27.9117 -2.72101 13.9207
rtibia 53.4933
rfoot -18.4487 -4.59888
rtoes -17.07
lfemur -25.6353 3.66802 -18.6704
ltibia 48.5283
lfoot -14.7979 -2.72125
ltoes -14.8285
675
root 0.139129 14.9072 -2.47246 -3.25996 0.177173 1.85052
lowerback 32.2742 0.538123 -2.83987
upperback 13.7644 -0.116794 0.0750293
thorax -1.91368 -0.178263 1.7551
lowerneck -13.1447 -9.22755 -12.4257
upperneck -5.97883 -10.843 21.9952
head 2.49849 -4.91427 8.08813
rclavicle -2.65874e-015 7.15625e-015
rhumerus 18.2651 26.2246 -80.0365
rradius 69.3793
rwrist 24.3303
rhand 22.7053 6.87163
rfingers 7.12502
rthumb 47.0464 -15.7741
lclavicle -2.65874e-015 7.15625e-015
lhumerus 12.6348 -23.261 80.901
lradius 75.0652
lwrist -1.12841
lhand 4.16005 26.181
lfingers 7.12502
lthumb 29.5685 53.8456
rfemur -28.2739 -2.64259 14.2422
rtibia 53.5618
rfoot -18.2689 -4.73353
rtoes -17.1833
lfemur -26.0846 3.69406 -18.3802
ltibia 48.7156
lfoot -14.6771 -2.79766
ltoes -14.4965
676
root 0.139972 14.9011 -2.49309 -3.06918 0.173815 1.74021
lowerback 32.4742 0.487313 -2.75327
upperback 13.9096 -0.1561 0.138909
thorax -1.83014 -0.199571 1.78947
lowerneck -13.2074 -9.34433 -12.6154
upperneck -5.22269 -11.0815 21.8592
head 2.76597 -4.99971 8.0327
rclavicle -6.55989e-015 -3.77691e-015
rhumerus 18.1218 26.445 -80.1616
rradius 69.3705
rwrist 24.3023
rhand 22.9909 6.85426
rfingers 7.12502
rthumb 47.3104 -15.674
lclavicle -6.55989e-015 -3.77691e-015
lhumerus 12.3817 -23.3088 81.0076
lradius 75.0888
lwrist -1.15157
lhand 4.13779 25.9013
lfingers 7.12502
lthumb 29.5472 53.5696
rfemur -28.6346 -2.62232 14.3902
rtibia 53.6474
rfoot -18.1529 -4.81442
rtoes -17.4484
lfemur -26.49 3.72293 -18.2729
ltibia 48.8733
lfoot -14.5849 -2.83487
ltoes -14.7808
677
root 0.141191 14.8956 -2.51141 -3.00113 0.124692 1.86153
lowerback 32.8518 0.516479 -2.86175
upperback 14.0088 -0.161728 0.12549
thorax -1.87403 -0.206996 1.8405
lowerneck -13.1352 -9.45681 -12.8106
upperneck -4.56604 -11.311 21.7792
head 2.98755 -5.09192 8.00349
rclavicle 3.926e-015 -1.86361e-015
rhumerus 17.8119 26.5797 -80.4067
rradius 69.3956
rwrist 24.2428
rhand 22.9636 6.82489
rfingers 7.12502
rthumb 47.2852 -15.7147
lclavicle 3.926e-015 -1.86361e-015
lhumerus 12.1534 -23.5379 81.0563
lradius 75.0698
lwrist -1.00457
lhand 3.93822 25.6946
lfingers 7.12502
lthumb 29.3567 53.3965
rfemur -28.8645 -2.56189 14.2458
rtibia 53.7391
rfoot -18.0974 -4.68074
rtoes -16.7742
lfemur -26.6892 3.71491 -18.4219
ltibia 48.973
lfoot -14.5401 -2.76676
ltoes -15.3976
678
root 0.141948 14.891 -2.53094 -2.94357 0.123795 1.91741
lowerback 33.7538 0.534593 -2.88097
upperback 13.7488 -0.187167 0.196178
thorax -2.11758 -0.216848 1.78365
lowerneck -13.014 -9.55115 -12.9569
upperneck -4.00238 -11.5115 21.6813
head 3.16538 -5.17759 7.96685
rclavicle -1.46604e-015 1.61513e-015
rhumerus 17.1809 26.57 -80.9173
rradius 69.5551
rwrist 24.3551
rhand 22.6229 6.77232
rfingers 7.12502
rthumb 46.9702 -15.907
lclavicle -1.46604e-015 1.61513e-015
lhumerus 12.0203 -23.7876 81.0765
lradius 74.9061
lwrist -0.894441
lhand 3.9167 25.4897
lfingers 7.12502
lthumb 29.3362 53.1951
rfemur -29.0855 -2.53572 14.1769
rtibia 53.8348
rfoot -17.9633 -4.546
rtoes -16.0787
lfemur -26.891 3.69451 -18.4968
ltibia 49.0343
lfoot -14.4358 -2.707
ltoes -15.4056
